# xmcd CD database file
#
# Track frame offsets:
#	150
#	1427
#	18460
#	31110
#	47343
#	60481
#	72411
#	84261
#	98010
#	110086
#	125428
#
# Disc length: 1915 seconds
#
# Revision: 0
# Processed by: cddbd v1.4b41PL1 Copyright (c) Steve Scherf et al.
# Submitted via: Feurio! 1.60.3ß - http://www.feurio.com
#
DISCID=8007790b
DTITLE=Various Artist - KARAOKE - Deutsche Klassiker Vol.6
DYEAR=1900
DGENRE=
TTITLE0=??? - Datentrack
TTITLE1=Claudia Jung - Du, Ich Liebe Dich
TTITLE2=Peggy March - Mit 17 Hat Man Noch Träume
TTITLE3=Udo Jürgens - Mit 66 Jahren
TTITLE4=Gus Backus - Da Sprach Der Alte Häuptling Der Indianer
TTITLE5=Heinz Rühmann - Ich Brech Die Herzen Der Stolzesten Fraun
TTITLE6=Peter Kraus - Sugar Baby
TTITLE7=Lale Anderson - Ein Schiff Wird Kommen
TTITLE8=Rainer Betram - Itsy Bittsy Teeny Weenie Honolul Strandbikini
TTITLE9=Wolfgang Petry - Verlieben, Verloren, Vergessen, Verzeih´n
TTITLE10=Jenseits Von Eden - Jenseits Von Eden
EXTD=
EXTT0=
EXTT1=
EXTT2=
EXTT3=
EXTT4=
EXTT5=
EXTT6=
EXTT7=
EXTT8=
EXTT9=
EXTT10=
PLAYORDER=
